<?xml version="1.0" encoding="UTF-8"?>
<svg id="_图层_1" data-name="图层 1" xmlns="http://www.w3.org/2000/svg" viewBox="0 0 1986.74 905.73">
  <defs>
    <style>
      .cls-1 {
        fill: #c0bfbf;
      }
    </style>
  </defs>
  <path class="cls-1" d="M677.89,341.06L387.75,202.91c-18.57-8.84-40.14-8.84-58.71,0L38.91,341.06C15.14,352.39,0,376.37,0,402.71v434.75C0,855.57,7.19,872.93,20,885.74c12.8,12.8,30.16,20,48.27,20h124.1s81.91,0,80.7-80.08v-158.34c0-.34,.01-.68,.03-1.03l.05-.75c.03-.49,.07-.98,.15-1.46,1.33-8.23,8.44-14.34,16.84-14.34h136.04c.33,0,.66,0,.99,.03l.75,.04c.5,.03,1.01,.07,1.51,.15,8.22,1.34,14.32,8.45,14.32,16.84,0,0-.13,166.72-.04,170.74,1.44,68.19,71.9,68.19,71.9,68.19h132.94c18.11,0,35.47-7.2,48.27-20,12.8-12.8,20-30.17,20-48.27V402.71c0-26.34-15.14-50.32-38.91-61.64Zm-12.32,496.91l-.05,.75c-.03,.49-.07,.98-.15,1.46-1.33,8.22-8.44,14.34-16.84,14.34h-136.76c-9.3,0-16.85-7.54-16.85-16.85v-170.89c0-18.11-7.19-35.47-20-48.27-12.8-12.8-30.16-19.99-48.27-19.99h-136.54c-18.11,0-35.47,7.19-48.27,19.99-12.8,12.81-20,30.17-20,48.27v153.81c0,18.74-15.19,33.93-33.93,33.93H68.78c-.34,0-.68-.01-1.02-.03l-.75-.05c-.49-.03-.99-.07-1.47-.15-8.23-1.33-14.34-8.44-14.34-16.85V403.24c0-.35,.01-.71,.03-1.06l.05-.83c.03-.54,.08-1.08,.17-1.61,.96-5.42,4.47-10.06,9.47-12.44L350.58,249.37c.32-.15,.65-.3,.98-.43l.79-.31c.51-.2,1.03-.4,1.56-.54,3.94-1.08,8.14-.71,11.84,1.06l289.65,137.93c.32,.15,.64,.32,.95,.49l.72,.4c.47,.26,.94,.53,1.37,.85,4.48,3.19,7.17,8.37,7.17,13.9v434.24c0,.34-.01,.68-.03,1.03Z"/>
</svg>