<?xml version="1.0" encoding="UTF-8"?>
<svg id="_图层_2" data-name="图层 2" xmlns="http://www.w3.org/2000/svg" viewBox="0 0 1986.74 905.73">
  <defs>
    <style>
      .cls-1 {
        fill: #278fc0;
      }
    </style>
  </defs>
  <path class="cls-1" d="M1947.83,144.79L1657.69,6.63c-18.57-8.84-40.14-8.84-58.71,0l-290.14,138.16c-23.77,11.32-38.91,35.31-38.91,61.64v434.75c0,18.1,7.19,35.47,20,48.27,12.8,12.8,30.16,20,48.27,20h124.1s81.91,0,80.7-80.08v-158.34c0-.34,.01-.68,.03-1.03l.05-.75c.03-.49,.07-.98,.15-1.46,1.33-8.23,8.44-14.34,16.84-14.34h136.04c.33,0,.66,0,.99,.03l.75,.04c.5,.03,1.01,.07,1.51,.15,8.22,1.34,14.32,8.45,14.32,16.84,0,0-.13,166.72-.04,170.74,1.44,68.19,71.9,68.19,71.9,68.19h132.94c18.11,0,35.47-7.2,48.27-20,12.8-12.8,20-30.17,20-48.27V206.43c0-26.34-15.14-50.32-38.91-61.64Z"/>
</svg>