<?xml version="1.0" encoding="UTF-8"?>
<svg id="_图层_2" data-name="图层 2" xmlns="http://www.w3.org/2000/svg" viewBox="0 0 1543.8 774.4">
  <defs>
    <style>
      .cls-1 {
        fill: #278fc0;
      }
    </style>
  </defs>
  <path class="cls-1" d="M284.45,399.82l-.12,1.25c.03-.39,0-.56-.07-.6l-236.94,111.63-3.79,1.91c-27.07,14.81-43.54,42.53-43.54,72.7v8.6l.1,3.62c2.34,37.73,33.01,66.66,70.18,66.66H663.59c18.64,0,36.52-7.41,49.69-20.59,13.18-13.18,20.59-31.05,20.59-49.7v-8.6c0-31.94-18.44-61-47.33-74.62l-236.64-111.55c-.29-.13-.48-.43-.48-.75v-4.81c0-.77,.3-1.5,.85-2.05l34.23-33.6c32.14-31.55,50.25-74.7,50.25-119.74v-77.18c0-89.71-72.73-162.42-162.44-162.42h-10.75l-4.66,.07c-87.98,2.7-157.78,74.55-157.78,162.37v77.18l.09,5.65c1.48,43.05,19.44,83.89,50.16,114.09l34.24,33.62,1.02,1.18c-.41-.46-.17,.17-.17,.85v4.81Z"/>
</svg>