<?xml version="1.0" encoding="UTF-8"?>
<svg id="_图层_1" data-name="图层 1" xmlns="http://www.w3.org/2000/svg" viewBox="0 0 1543.8 774.4">
  <defs>
    <style>
      .cls-1 {
        fill: #c0bfbf;
      }
    </style>
  </defs>
  <path class="cls-1" d="M1168.01,160.05l3.88-.05h10.36c61.44,0,111.24,49.8,111.24,111.24v77.18c0,31.3-12.58,61.29-34.92,83.21l-34.24,33.62c-10.34,10.16-16.18,24.05-16.18,38.55v4.81c0,20.14,11.64,38.47,29.85,47.07l236.65,111.51c10.96,5.16,17.96,16.2,17.96,28.32v8.6c0,10.53-8.53,19.08-19.08,19.08H880.21c-10.07,0-18.43-7.85-19.05-17.85l-.05-2.03,.02-7.8c0-11.44,6.25-21.96,16.25-27.45l2.39-1.19,235.96-111.19c16.61-7.82,27.86-23.82,29.61-42.09l.21-3.75,.03-6.04c0-12.66-4.44-24.88-12.52-34.59l-2.77-3.05-35.12-34.53c-21.29-20.89-33.76-49.16-34.85-78.97l-.09-4.73v-76.7c0-60.09,47.71-109.32,107.77-111.19h0Zm-73.62,348.57l-.12,1.25c.03-.39,0-.56-.07-.6l-236.94,111.63-3.79,1.91c-27.07,14.81-43.54,42.53-43.54,72.7v8.6l.1,3.62c2.34,37.73,33.01,66.66,70.18,66.66h593.31c18.64,0,36.52-7.41,49.69-20.59,13.18-13.18,20.59-31.05,20.59-49.7v-8.6c0-31.94-18.44-61-47.33-74.62l-236.64-111.55c-.29-.13-.48-.43-.48-.75v-4.81c0-.77,.3-1.5,.85-2.05l34.23-33.6c32.14-31.55,50.25-74.7,50.25-119.74v-77.18c0-89.71-72.73-162.42-162.44-162.42h-10.75l-4.66,.07c-87.98,2.7-157.78,74.55-157.78,162.37v77.18l.09,5.65c1.48,43.05,19.44,83.89,50.16,114.09l34.24,33.62,1.02,1.18c-.41-.46-.17,.17-.17,.85v4.81Zm0,0"/>
</svg>